<mxfile host="app.diagrams.net" modified="2021-12-14T06:13:42.360Z" agent="5.0 (Macintosh; Intel Mac OS X 10_15_7) AppleWebKit/537.36 (KHTML, like Gecko) Chrome/96.0.4664.93 Safari/537.36" etag="KZhKWfgswFdexlJxglaA" version="15.8.2" type="github">
  <diagram id="9CLesrmSoFptZDxhMz3D" name="Page-1">
    <mxGraphModel dx="1188" dy="641" grid="0" gridSize="10" guides="1" tooltips="1" connect="1" arrows="1" fold="1" page="1" pageScale="1" pageWidth="827" pageHeight="1169" math="0" shadow="0">
      <root>
        <mxCell id="0" />
        <mxCell id="1" parent="0" />
        <mxCell id="JV1jPT64m68JZ7gGfdCl-6" style="edgeStyle=orthogonalEdgeStyle;rounded=0;orthogonalLoop=1;jettySize=auto;html=1;shape=flexArrow;fillColor=#dae8fc;strokeColor=#6c8ebf;" edge="1" parent="1">
          <mxGeometry relative="1" as="geometry">
            <mxPoint x="467" y="632" as="sourcePoint" />
            <mxPoint x="467" y="601" as="targetPoint" />
          </mxGeometry>
        </mxCell>
        <mxCell id="JV1jPT64m68JZ7gGfdCl-19" style="edgeStyle=orthogonalEdgeStyle;rounded=0;orthogonalLoop=1;jettySize=auto;html=1;" edge="1" parent="1" source="JV1jPT64m68JZ7gGfdCl-1">
          <mxGeometry relative="1" as="geometry">
            <mxPoint x="734" y="717" as="targetPoint" />
          </mxGeometry>
        </mxCell>
        <mxCell id="JV1jPT64m68JZ7gGfdCl-1" value="万象" style="rounded=0;whiteSpace=wrap;html=1;fillColor=#dae8fc;strokeColor=#6c8ebf;align=center;verticalAlign=top;" vertex="1" parent="1">
          <mxGeometry x="273" y="637" width="393" height="160" as="geometry" />
        </mxCell>
        <mxCell id="JV1jPT64m68JZ7gGfdCl-2" value="企业管理后台" style="rounded=0;whiteSpace=wrap;html=1;fillColor=#f5f5f5;strokeColor=#666666;fontColor=#333333;verticalAlign=top;" vertex="1" parent="1">
          <mxGeometry x="273" y="361" width="390" height="235" as="geometry" />
        </mxCell>
        <mxCell id="JV1jPT64m68JZ7gGfdCl-3" value="庇虎-客户端" style="rounded=0;whiteSpace=wrap;html=1;fillColor=#fff2cc;strokeColor=#d6b656;verticalAlign=top;" vertex="1" parent="1">
          <mxGeometry x="69" y="73" width="392" height="107" as="geometry" />
        </mxCell>
        <mxCell id="JV1jPT64m68JZ7gGfdCl-9" style="edgeStyle=orthogonalEdgeStyle;rounded=0;orthogonalLoop=1;jettySize=auto;html=1;shape=flexArrow;fillColor=#dae8fc;strokeColor=#6c8ebf;" edge="1" parent="1">
          <mxGeometry relative="1" as="geometry">
            <mxPoint x="467.3299999999999" y="351" as="sourcePoint" />
            <mxPoint x="467.3299999999999" y="320" as="targetPoint" />
          </mxGeometry>
        </mxCell>
        <mxCell id="JV1jPT64m68JZ7gGfdCl-10" value="快速连接" style="rounded=0;whiteSpace=wrap;html=1;align=center;verticalAlign=top;" vertex="1" parent="1">
          <mxGeometry x="303" y="665" width="73" height="28" as="geometry" />
        </mxCell>
        <mxCell id="JV1jPT64m68JZ7gGfdCl-11" value="协议适配" style="rounded=0;whiteSpace=wrap;html=1;align=center;verticalAlign=top;" vertex="1" parent="1">
          <mxGeometry x="554" y="665" width="73" height="28" as="geometry" />
        </mxCell>
        <mxCell id="JV1jPT64m68JZ7gGfdCl-18" style="edgeStyle=orthogonalEdgeStyle;rounded=0;orthogonalLoop=1;jettySize=auto;html=1;" edge="1" parent="1" source="JV1jPT64m68JZ7gGfdCl-12">
          <mxGeometry relative="1" as="geometry">
            <mxPoint x="670" y="728" as="targetPoint" />
          </mxGeometry>
        </mxCell>
        <mxCell id="JV1jPT64m68JZ7gGfdCl-12" value="第三方" style="rounded=0;whiteSpace=wrap;html=1;fillColor=#fff2cc;strokeColor=#d6b656;" vertex="1" parent="1">
          <mxGeometry x="739" y="710" width="122" height="36" as="geometry" />
        </mxCell>
        <mxCell id="JV1jPT64m68JZ7gGfdCl-14" value="规则引擎" style="rounded=0;whiteSpace=wrap;html=1;align=center;verticalAlign=top;" vertex="1" parent="1">
          <mxGeometry x="387" y="665" width="73" height="28" as="geometry" />
        </mxCell>
        <mxCell id="JV1jPT64m68JZ7gGfdCl-15" value="数据推送" style="rounded=0;whiteSpace=wrap;html=1;align=center;verticalAlign=top;" vertex="1" parent="1">
          <mxGeometry x="470" y="665" width="73" height="28" as="geometry" />
        </mxCell>
        <mxCell id="JV1jPT64m68JZ7gGfdCl-16" value="设备运维：设备周期管理、物联网卡管理、设备调试" style="rounded=0;whiteSpace=wrap;html=1;align=center;verticalAlign=top;" vertex="1" parent="1">
          <mxGeometry x="303" y="704" width="323" height="28" as="geometry" />
        </mxCell>
        <mxCell id="JV1jPT64m68JZ7gGfdCl-17" value="由物联网平台提供api 支撑上层应用" style="text;html=1;strokeColor=none;fillColor=none;align=center;verticalAlign=middle;whiteSpace=wrap;rounded=0;" vertex="1" parent="1">
          <mxGeometry x="485" y="603" width="197" height="30" as="geometry" />
        </mxCell>
        <mxCell id="JV1jPT64m68JZ7gGfdCl-20" value="协议适配" style="text;html=1;strokeColor=none;fillColor=none;align=center;verticalAlign=middle;whiteSpace=wrap;rounded=0;" vertex="1" parent="1">
          <mxGeometry x="671" y="686" width="63" height="30" as="geometry" />
        </mxCell>
        <mxCell id="JV1jPT64m68JZ7gGfdCl-21" value="日志查询、时序查询" style="rounded=0;whiteSpace=wrap;html=1;align=center;verticalAlign=top;" vertex="1" parent="1">
          <mxGeometry x="303" y="744" width="323" height="28" as="geometry" />
        </mxCell>
        <mxCell id="JV1jPT64m68JZ7gGfdCl-22" value="设备注册" style="rounded=0;whiteSpace=wrap;html=1;align=center;verticalAlign=top;" vertex="1" parent="1">
          <mxGeometry x="303" y="403" width="73" height="28" as="geometry" />
        </mxCell>
        <mxCell id="JV1jPT64m68JZ7gGfdCl-23" value="项目运维：项目配置、规则引擎、项目分析" style="rounded=0;whiteSpace=wrap;html=1;align=center;verticalAlign=top;" vertex="1" parent="1">
          <mxGeometry x="303" y="474" width="328" height="28" as="geometry" />
        </mxCell>
        <mxCell id="JV1jPT64m68JZ7gGfdCl-24" value="告警中心" style="rounded=0;whiteSpace=wrap;html=1;align=center;verticalAlign=top;" vertex="1" parent="1">
          <mxGeometry x="387" y="403" width="73" height="28" as="geometry" />
        </mxCell>
        <mxCell id="JV1jPT64m68JZ7gGfdCl-25" value="数据分析" style="rounded=0;whiteSpace=wrap;html=1;align=center;verticalAlign=top;" vertex="1" parent="1">
          <mxGeometry x="558" y="403" width="73" height="28" as="geometry" />
        </mxCell>
        <mxCell id="JV1jPT64m68JZ7gGfdCl-26" value="CMS" style="rounded=0;whiteSpace=wrap;html=1;align=center;verticalAlign=top;" vertex="1" parent="1">
          <mxGeometry x="390" y="439" width="73" height="28" as="geometry" />
        </mxCell>
        <mxCell id="JV1jPT64m68JZ7gGfdCl-27" value="设备运维：设备周期管理、物联网卡管理、设备调试" style="rounded=0;whiteSpace=wrap;html=1;align=center;verticalAlign=top;" vertex="1" parent="1">
          <mxGeometry x="303" y="509" width="327" height="28" as="geometry" />
        </mxCell>
        <mxCell id="JV1jPT64m68JZ7gGfdCl-32" value="用户管理" style="rounded=0;whiteSpace=wrap;html=1;align=center;verticalAlign=top;" vertex="1" parent="1">
          <mxGeometry x="557" y="439" width="73" height="28" as="geometry" />
        </mxCell>
        <mxCell id="JV1jPT64m68JZ7gGfdCl-33" value="意见反馈" style="rounded=0;whiteSpace=wrap;html=1;align=center;verticalAlign=top;" vertex="1" parent="1">
          <mxGeometry x="473" y="439" width="73" height="28" as="geometry" />
        </mxCell>
        <mxCell id="JV1jPT64m68JZ7gGfdCl-34" value="人员配置" style="rounded=0;whiteSpace=wrap;html=1;align=center;verticalAlign=top;" vertex="1" parent="1">
          <mxGeometry x="471" y="403" width="73" height="28" as="geometry" />
        </mxCell>
        <mxCell id="JV1jPT64m68JZ7gGfdCl-35" value="WMS" style="rounded=0;whiteSpace=wrap;html=1;align=center;verticalAlign=top;" vertex="1" parent="1">
          <mxGeometry x="303" y="439" width="73" height="28" as="geometry" />
        </mxCell>
        <mxCell id="JV1jPT64m68JZ7gGfdCl-36" value="权限架构、任务流、审批流..." style="rounded=0;whiteSpace=wrap;html=1;align=center;verticalAlign=top;" vertex="1" parent="1">
          <mxGeometry x="303" y="545" width="327" height="28" as="geometry" />
        </mxCell>
        <mxCell id="JV1jPT64m68JZ7gGfdCl-37" value="庇虎-运维端" style="rounded=0;whiteSpace=wrap;html=1;fillColor=#fff2cc;strokeColor=#d6b656;verticalAlign=top;" vertex="1" parent="1">
          <mxGeometry x="69" y="192" width="392" height="107" as="geometry" />
        </mxCell>
        <mxCell id="JV1jPT64m68JZ7gGfdCl-38" value="掌上庇虎" style="rounded=0;whiteSpace=wrap;html=1;fillColor=#fff2cc;strokeColor=#d6b656;verticalAlign=top;" vertex="1" parent="1">
          <mxGeometry x="475" y="73" width="392" height="107" as="geometry" />
        </mxCell>
        <mxCell id="JV1jPT64m68JZ7gGfdCl-39" value="application n...." style="rounded=0;whiteSpace=wrap;html=1;fillColor=#fff2cc;strokeColor=#d6b656;verticalAlign=top;" vertex="1" parent="1">
          <mxGeometry x="475" y="192" width="392" height="107" as="geometry" />
        </mxCell>
        <mxCell id="JV1jPT64m68JZ7gGfdCl-40" value="载体：app、web、大屏、小程序、服务号" style="rounded=0;whiteSpace=wrap;html=1;align=center;verticalAlign=top;" vertex="1" parent="1">
          <mxGeometry x="91" y="140" width="345" height="28" as="geometry" />
        </mxCell>
        <mxCell id="JV1jPT64m68JZ7gGfdCl-41" value="报警管理" style="rounded=0;whiteSpace=wrap;html=1;align=center;verticalAlign=top;" vertex="1" parent="1">
          <mxGeometry x="91" y="102" width="73" height="28" as="geometry" />
        </mxCell>
        <mxCell id="JV1jPT64m68JZ7gGfdCl-42" value="故障管理" style="rounded=0;whiteSpace=wrap;html=1;align=center;verticalAlign=top;" vertex="1" parent="1">
          <mxGeometry x="172" y="102" width="73" height="28" as="geometry" />
        </mxCell>
      </root>
    </mxGraphModel>
  </diagram>
</mxfile>
